<svg version="1.1" id="Layer_1" xmlns="http://www.w3.org/2000/svg" xmlns:xlink="http://www.w3.org/1999/xlink" x="0px" y="0px"
	 width="100%" viewBox="0 0 496 496" enable-background="new 0 0 496 496" xml:space="preserve">
<path fill="#000000" opacity="1.000000" stroke="none" 
	d="
M327.049377,86.229218 
	C327.830017,83.995453 327.726318,81.846664 329.447449,80.218285 
	C333.489807,80.486359 332.937927,83.162659 332.243286,85.844986 
	C330.039734,94.354156 327.803162,102.854782 325.578186,111.363243 
	C327.498840,112.281876 328.292603,110.858826 329.225861,110.149681 
	C335.459259,105.413177 341.624786,100.587425 347.841431,95.828659 
	C349.271576,94.733902 350.707336,93.366776 352.743683,94.719917 
	C354.733887,96.042419 354.190094,97.812248 353.722290,99.631500 
	C351.776398,107.198509 349.882263,114.778870 347.919159,122.341362 
	C347.626770,123.467758 347.166443,124.529152 347.993042,126.427376 
	C353.811676,121.922134 359.404785,117.596909 364.991180,113.262970 
	C366.833557,111.833641 368.636047,110.352081 370.497772,108.948776 
	C372.291687,107.596603 373.839417,107.764168 375.183929,110.140762 
	C373.345642,113.321648 369.968994,115.004044 367.243195,117.278236 
	C361.108673,122.396385 354.765045,127.265099 348.472290,132.191605 
	C346.823944,133.482101 345.304260,135.303452 342.766083,133.707733 
	C340.156433,132.067062 341.370758,129.819901 341.831055,127.882156 
	C343.860535,119.338966 346.067993,110.838051 348.559631,100.936264 
	C340.975769,106.817665 334.534271,111.920830 327.959412,116.845985 
	C326.002808,118.311684 324.324768,121.429794 321.176025,119.468796 
	C318.060913,117.528755 319.890198,114.710060 320.489716,112.261986 
	C322.586304,103.700661 324.776062,95.162155 327.049377,86.229218 
z"/>
<path fill="#000000" opacity="1.000000" stroke="none" 
	d="
M425.113892,236.354294 
	C411.876038,242.570862 400.677307,237.608536 396.757996,223.939270 
	C395.617035,219.960068 395.309753,215.743591 394.196381,211.754196 
	C393.173645,208.089661 394.443573,206.551605 397.958649,205.919647 
	C407.611603,204.184174 417.263947,202.425766 426.862183,200.416794 
	C429.904419,199.780060 431.123169,200.551315 431.576599,203.564713 
	C432.293121,208.326202 433.638824,213.010193 434.113098,217.787048 
	C434.879272,225.504333 432.105408,231.819778 425.113892,236.354294 
M409.688416,233.237732 
	C416.361359,235.118011 422.476562,234.092789 426.769958,228.447464 
	C432.354462,221.104507 428.982880,213.407822 427.257294,205.390167 
	C417.410583,207.289276 408.222595,209.061325 399.138336,210.813370 
	C399.652557,223.419006 402.145569,228.855591 409.688416,233.237732 
z"/>
<path fill="#000000" opacity="1.000000" stroke="none" 
	d="
M76.177261,200.065323 
	C84.225296,194.574524 91.883018,194.326950 99.232368,199.089371 
	C105.579514,203.202362 108.410767,211.012451 106.678169,219.767014 
	C105.937294,223.510559 105.008766,227.219208 104.349419,230.975998 
	C103.828407,233.944595 102.764496,235.305542 99.344940,234.509491 
	C89.654770,232.253677 79.889534,230.320297 70.153687,228.260757 
	C68.297188,227.868011 66.185867,227.372971 66.726318,224.925812 
	C68.630219,216.304977 68.384109,206.844467 76.177261,200.065323 
M77.554764,205.079178 
	C73.043663,210.321304 72.926064,216.838440 71.518356,223.458130 
	C81.380569,225.579239 90.550346,227.551422 100.063263,229.597412 
	C101.013725,225.211014 102.079414,221.537201 102.564392,217.788254 
	C103.492661,210.612686 100.774338,205.307907 95.043564,202.276260 
	C88.934441,199.044479 83.919777,199.715088 77.554764,205.079178 
z"/>
<path fill="#000000" opacity="1.000000" stroke="none" 
	d="
M383.174133,182.806534 
	C379.482941,178.728027 378.149567,174.263992 378.945190,169.140793 
	C377.334961,169.010178 375.472504,170.574829 374.584167,168.086334 
	C373.757782,165.771317 375.551483,165.168747 376.943298,164.386749 
	C386.371460,159.089478 395.813751,153.817078 405.277161,148.583054 
	C406.648590,147.824554 408.264771,146.415405 409.574829,148.580246 
	C411.048737,151.015808 408.837769,151.776947 407.355499,152.677124 
	C404.409760,154.466019 401.391754,156.135834 398.291290,157.919479 
	C408.432922,165.068237 410.823700,173.130524 405.300385,180.522278 
	C400.789703,186.558838 389.918549,190.083267 383.174133,182.806534 
M396.524506,181.475540 
	C397.649078,180.771378 398.871521,180.184494 399.881073,179.342453 
	C403.922882,175.971283 404.753479,171.203568 402.160797,166.823990 
	C399.680481,162.634125 394.684296,160.960907 390.007263,162.753769 
	C384.647095,164.808517 382.052246,169.739029 383.463837,175.187042 
	C384.770599,180.230453 388.821716,182.367401 396.524506,181.475540 
z"/>
<path fill="#000000" opacity="1.000000" stroke="none" 
	d="
M349.080109,360.591553 
	C347.543945,358.630432 346.185730,356.944366 344.888184,355.212891 
	C344.036774,354.076843 343.498749,352.896637 344.924164,351.732452 
	C346.247406,350.651672 347.455933,350.963623 348.396179,352.148102 
	C355.433411,361.013367 362.435638,369.906433 369.431458,378.804474 
	C370.217926,379.804779 370.394806,380.845123 369.476746,381.963623 
	C367.969574,383.799927 366.431366,381.847931 364.957031,382.011993 
	C361.265686,390.741394 355.200256,394.647095 347.739227,393.155548 
	C341.607178,391.929718 335.922546,385.160553 335.711823,378.833466 
	C335.457672,371.203583 340.156891,366.307800 350.507202,363.422546 
	C350.789124,362.238556 349.763580,361.671753 349.080109,360.591553 
M360.507538,376.245544 
	C359.907227,374.497467 358.971100,372.959656 357.660675,371.649109 
	C353.591461,367.579193 348.397614,367.138000 344.294617,370.520020 
	C339.827148,374.202362 339.219910,379.223236 342.649963,384.155273 
	C345.420715,388.139313 349.178955,389.664886 353.866333,388.347748 
	C358.367645,387.082947 360.662231,383.080078 360.507538,376.245544 
z"/>
<path fill="#000000" opacity="1.000000" stroke="none" 
	d="
M193.077545,88.797585 
	C192.989471,86.631470 190.777267,84.496063 193.458344,83.133041 
	C195.458847,82.116013 196.423447,83.793938 197.113861,85.422012 
	C204.971695,78.182899 211.061813,76.983093 217.644363,81.234993 
	C223.061478,84.734085 225.602020,92.582855 223.348297,98.856697 
	C220.660797,106.338089 215.368729,108.690506 203.516037,107.550362 
	C203.354980,110.284172 204.882919,112.634544 205.177383,115.194809 
	C205.383987,116.991302 207.781967,119.632927 204.091995,120.430244 
	C201.149246,121.066124 201.214600,118.290123 200.721146,116.531975 
	C198.165955,107.427635 195.706406,98.296455 193.077545,88.797585 
M201.158310,87.755692 
	C200.651581,88.973267 199.948166,90.148087 199.672623,91.415909 
	C198.563766,96.517937 202.585800,102.781288 207.424423,103.662056 
	C213.166916,104.707359 218.399612,101.353043 219.502136,95.919884 
	C220.325256,91.863510 217.807892,86.542076 214.083572,84.465698 
	C209.932922,82.151634 206.016159,83.000214 201.158310,87.755692 
z"/>
<path fill="#000000" opacity="1.000000" stroke="none" 
	d="
M140.283981,380.585754 
	C136.899200,388.289642 131.873474,390.063507 124.976379,386.411072 
	C120.186798,383.874695 117.037498,379.917969 115.105209,374.945618 
	C114.603867,373.655518 114.509117,372.310516 116.108925,371.542969 
	C117.910988,370.678345 118.503189,372.020264 119.058304,373.225342 
	C120.544357,376.451202 122.489113,379.289398 125.381355,381.436981 
	C128.178299,383.513794 131.095306,384.405792 133.975677,381.855804 
	C136.626648,379.508942 135.693939,376.739655 134.297836,374.107574 
	C132.505035,370.727570 130.552856,367.427948 128.866745,363.996674 
	C127.113808,360.429291 127.110512,356.853058 129.971390,353.781952 
	C133.013229,350.516602 136.954910,349.655243 140.958206,351.203308 
	C147.325989,353.665680 151.762283,358.300537 153.923645,364.863159 
	C154.477097,366.543610 155.167786,368.858765 153.023453,369.711761 
	C150.399094,370.755646 150.259995,368.133942 149.720276,366.516388 
	C148.350739,362.411743 145.920547,359.124146 142.268448,356.826813 
	C139.767410,355.253479 137.075562,354.256989 134.452774,356.558899 
	C131.752991,358.928436 132.629272,361.636200 134.061127,364.254333 
	C135.817047,367.464966 137.673462,370.620453 139.454117,373.817780 
	C140.563019,375.808929 140.371964,378.003021 140.283981,380.585754 
z"/>
<path fill="#000000" opacity="1.000000" stroke="none" 
	d="
M112.188667,187.182770 
	C114.586990,184.041412 116.299370,181.008713 115.347382,177.235916 
	C114.931137,175.586319 115.421257,174.615128 117.063744,174.332825 
	C118.606903,174.067566 118.957520,175.208694 119.375160,176.373215 
	C121.131340,181.269958 117.760597,189.494736 112.540855,192.911972 
	C106.764046,196.693924 99.647812,195.856598 94.201920,190.754181 
	C89.243614,186.108536 88.368248,178.887466 92.040817,172.926483 
	C95.169640,167.848053 101.919128,165.568451 107.826111,167.306427 
	C111.044197,168.253265 111.723534,169.745209 110.278839,172.774567 
	C107.655792,178.274780 104.572968,183.595932 102.677521,189.606216 
	C106.790337,191.793030 109.270866,189.245895 112.188667,187.182770 
M102.135696,180.688736 
	C103.199707,177.830093 105.395309,175.372345 105.428444,172.125717 
	C100.191727,170.772736 96.919754,172.356583 95.056946,176.969986 
	C93.203590,181.559967 94.284660,184.923141 98.434067,187.277374 
	C100.194511,185.678070 100.757835,183.371124 102.135696,180.688736 
z"/>
<path fill="#000000" opacity="1.000000" stroke="none" 
	d="
M382.502075,154.126038 
	C379.160370,154.348251 378.231384,151.613037 376.634796,149.898605 
	C373.171448,146.179626 369.936432,142.248016 366.523163,138.305313 
	C361.875519,144.433609 364.023956,151.752502 370.699310,154.510818 
	C372.287231,155.166962 374.974792,155.032074 374.082855,157.683990 
	C373.174103,160.385788 370.864594,159.222549 369.060730,158.478027 
	C360.978088,155.142059 356.952820,145.915253 360.228882,138.344940 
	C363.569855,130.624664 372.020935,127.209084 379.680237,130.483459 
	C389.186829,134.547562 390.687500,145.834457 382.502075,154.126038 
M373.419006,140.167557 
	C375.872437,142.974442 378.325867,145.781311 380.865448,148.686768 
	C384.573792,143.703781 384.364807,139.932861 380.668030,136.356445 
	C377.142334,132.945511 373.544067,132.744675 369.783905,135.985367 
	C370.839844,137.202026 371.901825,138.425674 373.419006,140.167557 
z"/>
<path fill="#000000" opacity="1.000000" stroke="none" 
	d="
M147.890045,127.000031 
	C143.295334,131.538620 138.946411,135.833557 134.591309,140.134598 
	C139.249771,144.497116 146.602341,142.112778 149.845886,135.972443 
	C150.711380,134.334000 149.980377,129.991867 153.663437,131.808487 
	C156.719513,133.315857 154.446808,136.297684 153.443588,138.352417 
	C150.343582,144.701721 142.825134,148.477264 136.499054,147.134125 
	C130.576263,145.876617 125.198555,139.471527 124.749298,133.139603 
	C124.330833,127.241905 128.219193,121.464180 134.228806,119.358040 
	C139.166687,117.627518 143.698853,118.600082 147.770325,121.868813 
	C149.665802,123.390572 150.226944,124.961258 147.890045,127.000031 
M141.996918,123.817497 
	C137.322159,122.143669 133.422409,123.279076 130.710480,127.404037 
	C128.786407,130.330627 128.380386,133.464142 131.373840,136.767426 
	C135.772766,133.742889 139.281036,130.044464 142.808899,126.381668 
	C143.470474,125.694771 143.264572,124.857353 141.996918,123.817497 
z"/>
<path fill="#000000" opacity="1.000000" stroke="none" 
	d="
M75.856819,274.690094 
	C80.711403,274.191895 85.115807,273.709442 89.983704,273.176178 
	C85.339920,267.015930 78.466728,263.878693 74.711113,257.726471 
	C74.245964,256.964508 74.010384,255.823593 75.139511,254.301651 
	C79.635612,256.444641 82.707207,260.770203 87.124016,263.399261 
	C92.549622,259.545532 96.268356,253.832687 102.047562,250.042908 
	C104.759949,255.025742 100.877106,256.838867 98.665588,259.073303 
	C96.227608,261.536591 93.393684,263.608002 90.605232,265.957092 
	C93.929718,270.040955 96.001999,273.501617 101.037613,272.031708 
	C102.611092,271.572449 104.582130,271.688263 104.954460,273.953308 
	C105.362274,276.434235 103.201775,276.601959 101.692558,276.770233 
	C90.622803,278.004272 79.539841,279.121979 68.455620,280.221741 
	C66.923950,280.373749 65.310257,280.212128 65.078354,278.171051 
	C64.833458,276.015747 66.433525,275.846252 67.983437,275.657715 
	C70.459785,275.356445 72.932434,275.024658 75.856819,274.690094 
z"/>
<path fill="#000000" opacity="1.000000" stroke="none" 
	d="
M408.601654,326.874420 
	C404.725342,329.453949 400.895233,329.890228 396.816895,328.794830 
	C394.000916,328.038452 392.963745,326.637207 394.303009,323.691803 
	C396.831177,318.131744 399.142181,312.472931 401.542053,306.858429 
	C395.888062,304.541809 390.531677,307.964325 389.380035,314.207916 
	C389.170776,315.342560 389.297668,316.535126 389.191895,317.693909 
	C389.040955,319.347687 390.046082,321.960938 387.174805,321.829926 
	C384.920898,321.727112 384.901184,319.306763 384.733246,317.521057 
	C384.101654,310.805664 388.789215,303.731323 395.198425,301.626984 
	C401.417877,299.584961 408.681824,302.230896 412.175964,307.811157 
	C416.131561,314.128357 414.997467,320.698975 408.601654,326.874420 
M399.824249,320.940735 
	C399.415894,322.106232 398.290222,323.224792 399.544617,324.500305 
	C405.126953,324.718170 408.632141,322.570190 409.701447,317.987793 
	C410.612610,314.082977 410.272095,310.517303 405.789154,308.539917 
	C403.118652,312.270721 401.764404,316.351593 399.824249,320.940735 
z"/>
<path fill="#000000" opacity="1.000000" stroke="none" 
	d="
M321.380219,385.422852 
	C317.712555,386.470947 314.975220,388.223969 313.091187,391.190979 
	C312.365417,392.333893 311.492981,393.592651 309.911713,392.658356 
	C308.108978,391.593201 308.946533,390.092499 309.596130,388.730286 
	C312.537659,382.562164 322.446259,379.431122 329.203033,382.523560 
	C334.675751,385.028290 338.616943,392.268951 337.726288,398.182343 
	C336.800476,404.328918 331.567200,409.405243 325.335541,410.201447 
	C319.191742,410.986389 313.925598,407.566193 310.867706,400.440430 
	C316.727936,396.077179 324.111298,394.106628 330.317017,389.723663 
	C328.212036,386.295288 325.262390,385.295044 321.380219,385.422852 
M324.391724,405.687195 
	C331.639709,403.966309 334.685913,399.387177 331.892639,393.707184 
	C326.860657,396.326904 321.848755,398.936188 316.602936,401.667206 
	C318.913269,404.383087 320.930145,405.693939 324.391724,405.687195 
z"/>
<path fill="#000000" opacity="1.000000" stroke="none" 
	d="
M228.503601,95.134903 
	C225.072220,84.928047 228.214996,77.383568 236.756363,74.554100 
	C246.127014,71.449928 254.870575,78.323097 254.405914,88.680229 
	C247.392258,90.374649 240.093231,90.114815 232.901428,90.572510 
	C233.561371,97.704735 239.539154,100.478569 246.660873,97.798950 
	C248.553818,97.086708 251.143936,93.148323 252.685837,97.104630 
	C253.810577,99.990524 250.068008,101.234741 247.653732,102.140785 
	C240.214417,104.932663 233.465347,102.497520 228.503601,95.134903 
M244.426804,85.955734 
	C246.101074,85.566650 248.131546,86.392632 249.551224,84.314484 
	C247.739288,79.836929 244.407394,77.669556 239.563614,78.408989 
	C235.303696,79.059303 232.398849,81.343704 232.123703,86.268860 
	C236.121506,87.104057 239.850174,86.609772 244.426804,85.955734 
z"/>
<path fill="#000000" opacity="1.000000" stroke="none" 
	d="
M97.357796,327.525604 
	C98.421921,331.032043 100.433876,333.408478 103.084846,335.264526 
	C104.335533,336.140137 105.121185,337.152069 104.003571,338.533478 
	C102.965736,339.816315 101.576363,339.535889 100.432625,338.669342 
	C96.032372,335.335724 92.842094,331.209625 92.503571,325.455078 
	C92.177132,319.905975 95.775757,317.081268 100.134224,314.869080 
	C103.986282,312.913910 107.853256,310.987946 111.720192,309.062256 
	C113.424927,308.213287 115.993553,308.388184 115.540703,310.205475 
	C114.592216,314.011719 117.625618,314.777802 119.139015,316.744171 
	C121.218109,319.445465 122.494148,322.407440 122.409073,325.932526 
	C122.317802,329.714233 120.548355,332.178070 117.114998,333.584015 
	C113.642395,335.006042 110.979263,333.543854 108.625221,331.167725 
	C105.540321,328.053833 104.566406,323.601624 101.840691,320.058441 
	C97.966942,321.020233 96.934074,323.627350 97.357796,327.525604 
M116.295380,328.632324 
	C119.080711,324.963654 118.666374,321.127258 114.956619,318.053467 
	C111.970520,315.579315 108.905159,315.036743 105.706718,318.460968 
	C107.183105,321.178650 108.410172,323.895264 110.059921,326.324829 
	C111.309540,328.165100 112.802109,330.286560 116.295380,328.632324 
z"/>
<path fill="#000000" opacity="1.000000" stroke="none" 
	d="
M411.625519,263.562134 
	C411.663361,259.279694 411.699341,255.452621 411.709564,251.625488 
	C411.712677,250.466751 411.825592,249.166214 410.470398,248.635712 
	C409.239471,248.153870 408.243805,248.889786 407.270782,249.566330 
	C402.996429,252.538208 401.901642,258.148041 404.566833,264.402832 
	C405.198914,265.886322 406.064331,267.251007 404.115906,268.149261 
	C402.524811,268.882782 401.745422,267.479462 400.979828,266.399109 
	C397.212494,261.083130 398.014984,252.390244 402.718079,247.451340 
	C407.384888,242.550552 415.538239,241.708878 421.524017,245.510147 
	C427.341003,249.204208 429.446228,255.893341 426.885712,262.546295 
	C425.035278,267.354309 419.559204,271.338837 414.437988,271.123016 
	C408.625671,270.877991 412.002563,266.620789 411.625519,263.562134 
M418.033142,248.893280 
	C417.076965,248.732651 416.373383,249.084259 416.164520,250.039215 
	C414.995850,255.382034 415.153534,260.724884 415.640411,266.406250 
	C420.454773,265.583130 422.669739,262.825348 423.450745,259.056702 
	C424.350403,254.715485 422.752930,251.236557 418.033142,248.893280 
z"/>
<path fill="#000000" opacity="1.000000" stroke="none" 
	d="
M246.340881,409.215698 
	C245.597900,417.263428 244.824966,424.852814 244.157196,432.451477 
	C243.900024,435.377960 242.461212,436.565399 239.576782,436.249542 
	C233.310135,435.563354 227.038422,434.923096 220.767548,434.276062 
	C219.139221,434.108093 217.716919,433.654327 217.912628,431.641296 
	C218.125839,429.448029 219.942459,429.691071 221.349289,429.811768 
	C225.645538,430.180145 229.986420,430.422455 234.198212,431.269409 
	C238.306122,432.095428 239.734192,430.621277 239.700439,426.716034 
	C239.679077,424.244873 239.990387,421.770874 240.165344,419.102020 
	C235.658508,416.496307 230.428833,417.863647 225.703735,416.562927 
	C224.044632,416.106201 221.510315,416.486908 222.027878,413.715820 
	C222.513077,411.118134 224.796005,411.985596 226.534683,412.145081 
	C229.507828,412.417755 232.591568,412.341064 235.419785,413.145874 
	C240.201355,414.506531 241.367935,412.042755 241.606720,408.167603 
	C241.769974,405.518585 241.671509,402.854736 242.567978,400.283783 
	C243.015869,398.999268 243.683640,398.324341 245.114120,398.560516 
	C246.453415,398.781708 247.317444,399.504272 247.213684,400.865234 
	C247.012512,403.503723 246.649063,406.129822 246.340881,409.215698 
z"/>
<path fill="#000000" opacity="1.000000" stroke="none" 
	d="
M384.593353,342.242401 
	C390.417480,347.729736 391.958557,353.447449 389.479889,359.458527 
	C386.175140,367.472961 378.010712,370.986420 370.365204,367.684265 
	C362.563385,364.314636 358.993195,355.789276 362.272430,348.359406 
	C365.807526,340.349823 374.084259,337.201141 382.104553,340.830902 
	C382.857971,341.171844 383.561371,341.623291 384.593353,342.242401 
M370.793579,344.965546 
	C365.507202,348.915314 364.089325,353.421173 366.653961,358.120880 
	C369.173950,362.738800 374.374512,365.263092 378.568787,363.904205 
	C383.931641,362.166718 386.618927,357.843353 385.690857,352.446075 
	C384.649536,346.390137 379.074738,343.312408 370.793579,344.965546 
z"/>
<path fill="#000000" opacity="1.000000" stroke="none" 
	d="
M174.492096,91.835373 
	C183.771698,91.563637 189.616867,95.936050 191.158005,103.921768 
	C192.533478,111.049126 188.396988,117.841660 181.209229,120.258621 
	C173.678253,122.790970 165.878403,119.096046 162.950180,111.609009 
	C160.076645,104.261803 163.117889,96.658447 170.333847,93.267838 
	C171.530167,92.705711 172.824646,92.352516 174.492096,91.835373 
M182.306259,98.029922 
	C180.947632,97.460197 179.637146,96.627121 178.221680,96.368423 
	C173.288635,95.466797 168.522980,98.389206 166.867203,103.128471 
	C165.448822,107.188202 167.996414,113.089409 172.164978,115.400200 
	C176.392715,117.743790 181.555466,116.674622 184.673111,112.809853 
	C187.938126,108.762398 187.311584,103.741653 182.306259,98.029922 
z"/>
<path fill="#000000" opacity="1.000000" stroke="none" 
	d="
M194.152283,401.213501 
	C192.767181,405.348267 191.501587,409.127899 190.318573,412.933258 
	C189.739761,414.795105 188.803070,415.940826 186.707199,415.121002 
	C184.700134,414.335907 185.277557,412.748444 185.735382,411.328491 
	C187.927734,404.529053 190.130569,397.732605 192.402405,390.959503 
	C193.333633,388.183197 194.813065,386.050385 197.225616,389.712860 
	C198.452759,391.575806 199.814697,390.714386 201.151825,390.684570 
	C212.869507,390.423187 218.046326,397.119446 214.644516,408.246155 
	C213.479080,412.058075 212.271164,415.858795 210.982391,419.630341 
	C210.492081,421.065186 209.731644,422.569092 207.781189,421.972565 
	C205.529144,421.283813 205.949524,419.620239 206.505630,417.915192 
	C207.638596,414.441589 208.724335,410.952087 209.788177,407.456543 
	C211.801514,400.841156 210.774277,397.624298 206.089981,395.736511 
	C201.189621,393.761627 197.497253,395.369812 194.152283,401.213501 
z"/>
<path fill="#000000" opacity="1.000000" stroke="none" 
	d="
M103.179390,301.119446 
	C106.902321,294.637268 106.462906,291.200989 101.282639,286.346710 
	C99.896431,285.047760 98.761833,283.731812 100.207390,282.191528 
	C101.457802,280.859161 102.963173,282.020233 104.203453,282.889008 
	C109.627808,286.688660 111.508209,295.643188 108.169968,301.777252 
	C104.646744,308.251282 96.408401,311.193024 89.659119,308.387146 
	C83.363297,305.769745 79.116539,297.389740 81.042458,291.056824 
	C81.536728,289.431519 81.918671,286.893768 84.276924,287.297089 
	C86.949463,287.754181 85.883797,289.969482 85.511742,291.741943 
	C84.543129,296.356323 85.346756,300.500885 89.607224,303.130615 
	C94.400040,306.088928 98.849991,304.797241 103.179390,301.119446 
z"/>
<path fill="#000000" opacity="1.000000" stroke="none" 
	d="
M100.779755,156.783234 
	C103.089104,154.536407 105.355301,155.825790 107.572159,156.196167 
	C113.373520,157.165421 119.002235,159.184357 125.367691,159.573410 
	C122.991196,151.173172 115.945007,145.654724 114.885590,137.373123 
	C114.821289,136.870529 115.879677,136.224304 116.972946,135.042511 
	C122.029716,143.786255 127.036568,151.993042 131.533905,160.470123 
	C133.060898,163.348358 130.888580,165.664566 127.879021,165.118591 
	C119.217590,163.547241 110.643837,161.488419 102.046875,159.570770 
	C100.829712,159.299255 99.817673,158.664536 100.779755,156.783234 
z"/>
<path fill="#000000" opacity="1.000000" stroke="none" 
	d="
M403.977783,287.256836 
	C408.757690,290.857422 413.255646,294.292206 417.827545,297.625549 
	C419.889984,299.129242 421.431396,300.653473 419.530823,303.682312 
	C415.970337,302.699371 413.519501,299.895477 410.661346,297.834076 
	C405.938629,294.427887 401.290802,290.905212 396.770325,287.235870 
	C393.918427,284.920929 394.454590,281.672180 397.885132,280.919617 
	C406.479797,279.034149 415.147339,277.478668 423.796265,275.847168 
	C424.372620,275.738464 425.038086,276.101990 425.725372,276.260468 
	C426.574188,280.506836 423.333313,280.583923 420.937164,281.073883 
	C414.764282,282.335968 408.542542,283.359192 402.458160,284.456604 
	C401.878052,286.045593 403.143982,286.350891 403.977783,287.256836 
z"/>
<path fill="#000000" opacity="1.000000" stroke="none" 
	d="
M109.182281,348.527893 
	C110.350014,349.919464 111.286179,351.042694 112.544403,352.552307 
	C116.724335,349.526855 120.745857,346.659698 124.718666,343.726593 
	C127.857307,341.409393 128.527573,338.857025 125.338326,335.960449 
	C124.225372,334.949677 122.925041,333.531921 124.326218,332.160950 
	C125.881531,330.639191 127.443810,332.086884 128.658875,333.153778 
	C133.284042,337.215118 133.306335,342.829620 128.438019,346.943604 
	C124.399010,350.356720 120.013977,353.360352 116.030441,356.358612 
	C115.534111,358.506042 118.603729,359.995300 116.550621,361.686401 
	C114.484474,363.388214 113.446678,360.703156 111.885765,360.097748 
	C110.401863,359.897156 109.513969,361.125916 108.332596,361.643341 
	C106.958450,362.245178 106.140129,361.730072 105.440033,360.612671 
	C104.846481,359.665314 104.625198,358.530151 105.619095,357.962952 
	C109.471558,355.764465 107.712837,353.513916 105.924889,351.107086 
	C105.160248,350.077820 104.190483,348.854858 105.567787,347.597198 
	C106.918816,346.363525 107.981125,347.219147 109.182281,348.527893 
z"/>
<path fill="#000000" opacity="1.000000" stroke="none" 
	d="
M158.941101,405.860718 
	C156.932053,407.836304 156.845093,412.955383 153.155869,410.627869 
	C149.652679,408.417664 153.526047,405.629883 154.742172,403.532959 
	C159.570953,395.206909 164.710815,387.060242 169.796402,378.885071 
	C170.772995,377.315186 171.570007,374.753876 174.220810,376.600159 
	C176.470947,378.167389 174.799973,379.828461 173.898010,381.317078 
	C168.995346,389.408600 164.056427,397.478210 158.941101,405.860718 
z"/>
<path fill="#000000" opacity="1.000000" stroke="none" 
	d="
M161.601028,129.438965 
	C154.996643,120.207680 148.590530,111.278389 142.245529,102.305885 
	C141.173584,100.790039 139.071991,99.047768 141.657104,97.263832 
	C144.225204,95.491623 145.165390,98.109840 146.226288,99.588493 
	C152.437836,108.245865 158.573822,116.957642 164.695496,125.679016 
	C165.515167,126.846779 166.832001,128.082199 165.554657,129.674484 
	C164.405914,131.106491 163.086243,131.259369 161.601028,129.438965 
z"/>
<path fill="#000000" opacity="1.000000" stroke="none" 
	d="
M301.577881,418.074097 
	C300.335175,419.131927 299.388550,420.121399 298.242584,420.744080 
	C296.921661,421.461823 295.388397,421.989960 294.351379,420.176941 
	C293.315308,418.365570 294.404846,417.389343 295.848328,416.626556 
	C301.186737,413.805420 301.472382,409.300873 299.995300,404.218323 
	C299.114380,401.187256 298.171265,398.174255 297.286011,395.144379 
	C296.788849,393.442596 295.660583,391.455383 298.254730,390.533081 
	C301.451782,389.396423 301.301270,392.330353 301.839783,393.968506 
	C303.914307,400.279053 305.805115,406.650024 307.762329,412.999115 
	C308.250092,414.581390 309.028198,416.289093 307.481995,417.625519 
	C305.915924,418.979126 304.876984,417.552856 303.640594,416.696777 
	C302.772400,416.095703 302.341003,417.321442 301.577881,418.074097 
z"/>
<path fill="#000000" opacity="1.000000" stroke="none" 
	d="
M175.597656,407.470825 
	C173.855072,410.922028 172.305618,414.052368 170.709595,417.158783 
	C169.970245,418.597839 168.966446,419.729156 167.163727,418.781372 
	C165.324615,417.814484 165.839249,416.329285 166.538498,414.922424 
	C171.573547,404.792633 176.626984,394.671967 181.673889,384.548065 
	C182.421555,383.048279 183.478119,382.057373 185.239059,382.856476 
	C187.567627,383.913208 186.497742,385.572357 185.774948,387.037903 
	C182.464401,393.750427 179.110245,400.441467 175.597656,407.470825 
z"/>
<path fill="#000000" opacity="1.000000" stroke="none" 
	d="
M409.238373,349.958405 
	C399.114929,343.907288 389.337921,337.974182 379.622650,331.941620 
	C378.226990,331.075012 375.779572,330.338043 377.104584,327.911713 
	C378.604736,325.164612 380.557007,326.998596 382.139252,327.959198 
	C391.207336,333.464478 400.238831,339.030579 409.254211,344.621979 
	C411.798920,346.200226 413.910767,347.954254 409.238373,349.958405 
z"/>
<path fill="#000000" opacity="1.000000" stroke="none" 
	d="
M261.021973,91.282913 
	C261.618622,86.239433 262.162537,81.642876 262.647064,77.040062 
	C262.842377,75.184341 264.090332,72.931679 265.470245,74.432831 
	C268.187988,77.389343 270.604767,75.829865 273.285461,75.314209 
	C274.853851,75.012527 276.840393,74.262924 277.274872,76.721985 
	C277.691437,79.079880 275.776672,79.190491 274.084503,79.488342 
	C269.072693,80.370491 266.862518,83.755737 266.322083,88.504066 
	C265.910400,92.121231 265.593903,95.749184 265.189636,99.367264 
	C265.006195,101.009193 264.938202,102.984566 262.583374,102.804359 
	C260.416992,102.638580 260.148529,101.082130 260.399902,99.160507 
	C260.721588,96.701065 260.775848,94.206657 261.021973,91.282913 
z"/>
<path fill="#000000" opacity="1.000000" stroke="none" 
	d="
M295.672302,103.740868 
	C296.605835,106.068123 296.009918,107.608345 294.041412,108.431168 
	C292.663635,109.007088 291.500854,108.411293 290.635498,107.264091 
	C289.722351,106.053520 289.788666,104.788116 290.743713,103.683151 
	C292.181000,102.020248 293.802917,102.070755 295.672302,103.740868 
z"/>
<path fill="#000000" opacity="1.000000" stroke="none" 
	d="
M265.905090,400.021484 
	C266.548706,397.593964 267.792542,396.466553 269.997986,397.207397 
	C271.151062,397.594757 271.957886,398.510925 272.033691,399.795258 
	C272.122284,401.295685 271.325592,402.410797 269.971069,402.869873 
	C267.765991,403.617126 266.526001,402.459564 265.905090,400.021484 
z"/>
</svg>